<svg xmlns="http://www.w3.org/2000/svg" enable-background="new 0 0 510 510" viewBox="0 0 510 510"><linearGradient id="a" x1="205.675" x2="340.866" y1="293.984" y2="429.175" gradientUnits="userSpaceOnUse"><stop offset="0" stop-color="#ffd833"/><stop offset="1" stop-color="#f2b631"/></linearGradient><linearGradient id="b" x1="341.64" x2="341.64" y1="406.016" y2="280.126" gradientUnits="userSpaceOnUse"><stop offset="0" stop-color="#f9a126" stop-opacity="0"/><stop offset="1" stop-color="#ec4437"/></linearGradient><linearGradient id="c" x1="336.539" x2="411.345" y1="241.301" y2="316.106" gradientUnits="userSpaceOnUse"><stop offset="0" stop-color="#f2b631"/><stop offset="1" stop-color="#f9a126"/></linearGradient><linearGradient id="d" x1="304.752" x2="396.372" y1="56.349" y2="147.97" gradientUnits="userSpaceOnUse"><stop offset="0" stop-color="#f9a126"/><stop offset="1" stop-color="#ec4437"/></linearGradient><circle cx="255" cy="343.309" r="166.691" fill="url(#a)"/><path fill="url(#b)" d="m384.158 448.681c23.457-28.718 37.533-65.399 37.533-105.372 0-5.806-.299-11.543-.878-17.196h-159.224z"/><path fill="url(#c)" d="m255 166.359h166.359v166.359h-143.833c-12.441 0-22.526-10.085-22.526-22.526z"/><path fill="url(#d)" d="m277.526 0h121.308c12.441 0 22.526 10.085 22.526 22.526v143.833h-166.36v-143.833c0-12.441 10.085-22.526 22.526-22.526z"/></svg>