<svg viewBox="0 0 512 512" xmlns="http://www.w3.org/2000/svg" fill-rule="evenodd" clip-rule="evenodd" stroke-linejoin="round" stroke-miterlimit="2"><circle cx="1080" cy="1080" r="1079" fill="#fff" transform="matrix(.23704 0 0 .23704 .222 -.133)"/><path d="M386.83 280.519h-68.824c.557 15.644.82 8.77.557 15.644-1.66 43.141-34.43 75.075-77.511 75.139v43.733c57.126-.119 107.377-33.778 117.373-89.481h28.404v-45.035z" fill="#fbbd05" fill-rule="nonzero"/><path d="M241.052 371.302l-.119.002c-43.136 0-78.104-34.968-78.104-78.104 0-43.136 34.968-78.103 78.104-78.103l.119.002v-43.736h-.119c-67.288 0-121.837 54.55-121.837 121.837 0 67.288 54.55 121.837 121.837 121.837h.119v-43.735z" fill="#ea4335" fill-rule="nonzero"/><path d="M241.17 83.067c-48.765 0-88.296 39.53-88.296 88.296v.119h44.563c0-24.088 19.527-43.615 43.615-43.615 24.087 0 43.614 19.527 43.614 43.615s-19.527 43.615-43.614 43.615v44.563h.118c48.766 0 88.296-39.531 88.296-88.297 0-48.765-39.53-88.296-88.296-88.296z" fill="#34a853" fill-rule="nonzero"/><path d="M332.31 415.156h63.764L241.052 259.66h-63.763L332.31 415.156z" fill="#4285f4" fill-rule="nonzero"/></svg>